<?xml version="1.0" standalone="no"?>
<!DOCTYPE svg PUBLIC "-//W3C//DTD SVG 20010904//EN"
 "http://www.w3.org/TR/2001/REC-SVG-20010904/DTD/svg10.dtd">
<svg version="1.0" xmlns="http://www.w3.org/2000/svg"
 width="720.000000pt" height="720.000000pt" viewBox="0 0 720.000000 720.000000"
 preserveAspectRatio="xMidYMid meet">
<metadata>
Created by potrace 1.14, written by Peter Selinger 2001-2017
</metadata>
<g transform="translate(0.000000,720.000000) scale(0.100000,-0.100000)"
fill="#000000" stroke="none">
<path d="M0 3600 l0 -3600 3600 0 3600 0 0 3600 0 3600 -3600 0 -3600 0 0
-3600z m1200 3300 l0 -100 100 0 100 0 0 -100 0 -100 100 0 100 0 0 -100 0
-100 100 0 100 0 0 -100 0 -100 100 0 100 0 0 -100 0 -100 100 0 100 0 0 -100
0 -100 100 0 100 0 0 -100 0 -100 100 0 100 0 0 -100 0 -100 100 0 100 0 0
-100 0 -100 100 0 100 0 0 -100 0 -100 100 0 100 0 0 -100 0 -100 100 0 100 0
0 -100 0 -100 100 0 100 0 0 -100 0 -100 100 0 100 0 0 -100 0 -100 100 0 100
0 0 -100 0 -100 100 0 100 0 0 -100 0 -100 100 0 100 0 0 -100 0 -100 100 0
100 0 0 -100 0 -100 100 0 100 0 0 -100 0 -100 100 0 100 0 0 100 0 100 100 0
100 0 0 100 0 100 100 0 100 0 0 100 0 100 200 0 200 0 0 -100 0 -100 100 0
100 0 0 -100 0 -100 100 0 100 0 0 -100 0 -100 100 0 100 0 0 -200 0 -200
-100 0 -100 0 0 -100 0 -100 -100 0 -100 0 0 -100 0 -100 -100 0 -100 0 0
-200 0 -200 100 0 100 0 0 -100 0 -100 100 0 100 0 0 -100 0 -100 200 0 200 0
0 -100 0 -100 100 0 100 0 0 -100 0 -100 100 0 100 0 0 -200 0 -200 -100 0
-100 0 0 -100 0 -100 -100 0 -100 0 0 -100 0 -100 -100 0 -100 0 0 -100 0
-100 -200 0 -200 0 0 100 0 100 -100 0 -100 0 0 100 0 100 -100 0 -100 0 0
200 0 200 -100 0 -100 0 0 100 0 100 -100 0 -100 0 0 100 0 100 -200 0 -200 0
0 -100 0 -100 -100 0 -100 0 0 -100 0 -100 -100 0 -100 0 0 -100 0 -100 -200
0 -200 0 0 100 0 100 -100 0 -100 0 0 100 0 100 -100 0 -100 0 0 100 0 100
-100 0 -100 0 0 200 0 200 100 0 100 0 0 100 0 100 100 0 100 0 0 100 0 100
100 0 100 0 0 100 0 100 -100 0 -100 0 0 100 0 100 -100 0 -100 0 0 100 0 100
-100 0 -100 0 0 100 0 100 -100 0 -100 0 0 100 0 100 -100 0 -100 0 0 100 0
100 -100 0 -100 0 0 100 0 100 -100 0 -100 0 0 100 0 100 -100 0 -100 0 0 100
0 100 -100 0 -100 0 0 100 0 100 -100 0 -100 0 0 100 0 100 -100 0 -100 0 0
100 0 100 -100 0 -100 0 0 100 0 100 -100 0 -100 0 0 100 0 100 -100 0 -100 0
0 100 0 100 -100 0 -100 0 0 100 0 100 -100 0 -100 0 0 100 0 100 -100 0 -100
0 0 100 0 100 -100 0 -100 0 0 100 0 100 -100 0 -100 0 0 500 0 500 500 0 500
0 0 -100z"/>
<path d="M400 6400 l0 -400 100 0 100 0 0 -100 0 -100 100 0 100 0 0 -100 0
-100 100 0 100 0 0 -100 0 -100 100 0 100 0 0 -100 0 -100 100 0 100 0 0 -100
0 -100 100 0 100 0 0 -100 0 -100 100 0 100 0 0 -100 0 -100 100 0 100 0 0
-100 0 -100 100 0 100 0 0 -100 0 -100 100 0 100 0 0 -100 0 -100 100 0 100 0
0 -100 0 -100 100 0 100 0 0 -100 0 -100 100 0 100 0 0 -100 0 -100 100 0 100
0 0 -100 0 -100 100 0 100 0 0 -100 0 -100 100 0 100 0 0 -100 0 -100 100 0
100 0 0 -100 0 -100 100 0 100 0 0 -100 0 -100 100 0 100 0 0 -200 0 -200
-200 0 -200 0 0 -100 0 -100 -100 0 -100 0 0 -200 0 -200 100 0 100 0 0 -100
0 -100 100 0 100 0 0 -100 0 -100 200 0 200 0 0 100 0 100 100 0 100 0 0 200
0 200 300 0 300 0 0 -100 0 -100 100 0 100 0 0 -100 0 -100 100 0 100 0 0
-100 0 -100 100 0 100 0 0 -200 0 -200 100 0 100 0 0 -100 0 -100 200 0 200 0
0 100 0 100 100 0 100 0 0 100 0 100 100 0 100 0 0 200 0 200 -100 0 -100 0 0
100 0 100 -200 0 -200 0 0 100 0 100 -100 0 -100 0 0 100 0 100 -100 0 -100 0
0 100 0 100 -100 0 -100 0 0 300 0 300 200 0 200 0 0 100 0 100 100 0 100 0 0
200 0 200 -100 0 -100 0 0 100 0 100 -100 0 -100 0 0 100 0 100 -200 0 -200 0
0 -100 0 -100 -100 0 -100 0 0 -200 0 -200 -200 0 -200 0 0 100 0 100 -100 0
-100 0 0 100 0 100 -100 0 -100 0 0 100 0 100 -100 0 -100 0 0 100 0 100 -100
0 -100 0 0 100 0 100 -100 0 -100 0 0 100 0 100 -100 0 -100 0 0 100 0 100
-100 0 -100 0 0 100 0 100 -100 0 -100 0 0 100 0 100 -100 0 -100 0 0 100 0
100 -100 0 -100 0 0 100 0 100 -100 0 -100 0 0 100 0 100 -100 0 -100 0 0 100
0 100 -100 0 -100 0 0 100 0 100 -100 0 -100 0 0 100 0 100 -100 0 -100 0 0
100 0 100 -100 0 -100 0 0 100 0 100 -100 0 -100 0 0 100 0 100 -100 0 -100 0
0 100 0 100 -400 0 -400 0 0 -400z m800 100 l0 -100 100 0 100 0 0 -100 0
-100 100 0 100 0 0 -100 0 -100 100 0 100 0 0 -100 0 -100 100 0 100 0 0 -100
0 -100 100 0 100 0 0 -100 0 -100 100 0 100 0 0 -100 0 -100 100 0 100 0 0
-100 0 -100 100 0 100 0 0 -100 0 -100 100 0 100 0 0 -100 0 -100 100 0 100 0
0 -100 0 -100 100 0 100 0 0 -100 0 -100 100 0 100 0 0 -100 0 -100 100 0 100
0 0 -100 0 -100 100 0 100 0 0 -100 0 -100 100 0 100 0 0 -100 0 -100 100 0
100 0 0 -100 0 -100 100 0 100 0 0 -100 0 -100 100 0 100 0 0 -100 0 -100 300
0 300 0 0 300 0 300 200 0 200 0 0 -200 0 -200 -100 0 -100 0 0 -100 0 -100
-100 0 -100 0 0 -400 0 -400 100 0 100 0 0 -100 0 -100 100 0 100 0 0 -100 0
-100 100 0 100 0 0 -200 0 -200 -200 0 -200 0 0 100 0 100 -100 0 -100 0 0
100 0 100 -100 0 -100 0 0 100 0 100 -400 0 -400 0 0 -100 0 -100 -100 0 -100
0 0 -100 0 -100 -200 0 -200 0 0 200 0 200 300 0 300 0 0 300 0 300 -100 0
-100 0 0 100 0 100 -100 0 -100 0 0 100 0 100 -100 0 -100 0 0 100 0 100 -100
0 -100 0 0 100 0 100 -100 0 -100 0 0 100 0 100 -100 0 -100 0 0 100 0 100
-100 0 -100 0 0 100 0 100 -100 0 -100 0 0 100 0 100 -100 0 -100 0 0 100 0
100 -100 0 -100 0 0 100 0 100 -100 0 -100 0 0 100 0 100 -100 0 -100 0 0 100
0 100 -100 0 -100 0 0 100 0 100 -100 0 -100 0 0 100 0 100 -100 0 -100 0 0
100 0 100 -100 0 -100 0 0 100 0 100 -100 0 -100 0 0 100 0 100 -100 0 -100 0
0 100 0 100 -100 0 -100 0 0 300 0 300 300 0 300 0 0 -100z m5400 -5500 l0
-200 -100 0 -100 0 0 -100 0 -100 -200 0 -200 0 0 200 0 200 100 0 100 0 0
100 0 100 200 0 200 0 0 -200z"/>
</g>
</svg>
